<?xml version="1.0" encoding="utf-8"?>
<!-- Generator: Adobe Illustrator 23.0.3, SVG Export Plug-In . SVG Version: 6.00 Build 0)  -->
<svg version="1.1" id="Layer_1" xmlns="http://www.w3.org/2000/svg" xmlns:xlink="http://www.w3.org/1999/xlink" x="0px" y="0px"
	 viewBox="0 0 528 198" style="enable-background:new 0 0 528 198;" xml:space="preserve">
<style type="text/css">
	.st0{clip-path:url(#SVGID_2_);fill:url(#SVGID_3_);}
	.st1{clip-path:url(#SVGID_2_);fill:url(#SVGID_4_);}
	.st2{filter:url(#Adobe_OpacityMaskFilter);}
	.st3{fill:url(#SVGID_6_);}
	.st4{mask:url(#SVGID_5_);fill-rule:evenodd;clip-rule:evenodd;fill:#00557A;}
	.st5{filter:url(#Adobe_OpacityMaskFilter_1_);}
	.st6{fill:url(#SVGID_8_);}
	.st7{mask:url(#SVGID_7_);fill-rule:evenodd;clip-rule:evenodd;fill:#00557A;}
	.st8{filter:url(#Adobe_OpacityMaskFilter_2_);}
	.st9{fill:url(#SVGID_10_);}
	.st10{mask:url(#SVGID_9_);fill-rule:evenodd;clip-rule:evenodd;fill:#00557A;}
	.st11{filter:url(#Adobe_OpacityMaskFilter_3_);}
	.st12{fill:url(#SVGID_12_);}
	.st13{mask:url(#SVGID_11_);fill-rule:evenodd;clip-rule:evenodd;fill:#D5E5E6;}
	.st14{filter:url(#Adobe_OpacityMaskFilter_4_);}
	.st15{fill:url(#SVGID_14_);}
	.st16{mask:url(#SVGID_13_);fill-rule:evenodd;clip-rule:evenodd;fill:#D5E5E6;}
	.st17{filter:url(#Adobe_OpacityMaskFilter_5_);}
	.st18{fill:url(#SVGID_16_);}
	.st19{mask:url(#SVGID_15_);fill-rule:evenodd;clip-rule:evenodd;fill:#D5E5E6;}
	.st20{filter:url(#Adobe_OpacityMaskFilter_6_);}
	.st21{fill:url(#SVGID_18_);}
	.st22{mask:url(#SVGID_17_);fill-rule:evenodd;clip-rule:evenodd;fill:#00557A;}
	.st23{filter:url(#Adobe_OpacityMaskFilter_7_);}
	.st24{fill:url(#SVGID_20_);}
	.st25{mask:url(#SVGID_19_);fill-rule:evenodd;clip-rule:evenodd;fill:#FFFFCC;}
	.st26{fill:#666666;}
	.st27{font-family:'HPSimplified-Regular';}
	.st28{font-size:46.3151px;}
	.st29{font-family:'HPSimplified-Bold';}
	.st30{fill:#914E05;}
	.st31{font-family:'Lato-BoldItalic';}
	.st32{font-size:22.1377px;}
</style>
<g>
	<g>
		<g>
			<defs>
				<path id="SVGID_1_" d="M51.39,66.71c3.17,33.08,29.16,32.66,44.35,38.28c-55.36,18.3-87.17-12.85-63.3-83.69
					c11.4,37.3,56.07,23.63,56.38,71.14c19.28-2.63,34.26-19.26,34.26-39.23c0-21.78-17.82-39.6-39.6-39.6H30.12
					c-7.62,0-13.83,6.21-13.83,13.83v130.73c0,7.62,6.21,13.83,13.83,13.83h27.86c4.29,5.13,10.06,8.45,10.06,8.45v-0.01
					c-26.42-34.37-9.71-61.42,29.06-62.82c-11.16,5.35-30.79,17.36-24.34,34.63c-1.49-10.37,5.19-20.98,17.27-24.15
					c10.4,29.26-20.1,30.81-18.79,56.26c1.8-11.32,13.45-12.1,18.18-12.81c36.91-5.5,50.63-61.56,6.01-73.44
					C78.42,93.61,58.83,93,51.39,66.71"/>
			</defs>
			<clipPath id="SVGID_2_">
				<use xlink:href="#SVGID_1_"  style="overflow:visible;"/>
			</clipPath>
			<linearGradient id="SVGID_3_" gradientUnits="userSpaceOnUse" x1="69.8678" y1="186.3572" x2="69.8678" y2="-19.7041">
				<stop  offset="0" style="stop-color:#00BFA5"/>
				<stop  offset="1" style="stop-color:#B2FF59"/>
			</linearGradient>
			<rect x="4.13" y="7.37" class="st0" width="131.48" height="170.77"/>
			<linearGradient id="SVGID_4_" gradientUnits="userSpaceOnUse" x1="68.9767" y1="185.0888" x2="68.9767" y2="-25.6676">
				<stop  offset="0" style="stop-color:#00BFA5"/>
				<stop  offset="1" style="stop-color:#B2FF59"/>
			</linearGradient>
			<rect x="9.47" y="2.02" class="st1" width="119.01" height="174.66"/>
		</g>
		<defs>
			<filter id="Adobe_OpacityMaskFilter" filterUnits="userSpaceOnUse" x="71.21" y="117.64" width="51.91" height="66.75">
				<feColorMatrix  type="matrix" values="1 0 0 0 0  0 1 0 0 0  0 0 1 0 0  0 0 0 1 0"/>
			</filter>
		</defs>
		<mask maskUnits="userSpaceOnUse" x="71.21" y="117.64" width="51.91" height="66.75" id="SVGID_5_">
			<g class="st2">
				
					<linearGradient id="SVGID_6_" gradientUnits="userSpaceOnUse" x1="-572.9462" y1="591.111" x2="-361.7172" y2="408.9342" gradientTransform="matrix(1 0 0 1 504.9955 -297.6979)">
					<stop  offset="0" style="stop-color:#FFFFFF"/>
					<stop  offset="1" style="stop-color:#000000"/>
				</linearGradient>
				<rect x="71.21" y="117.64" class="st3" width="51.91" height="66.75"/>
			</g>
		</mask>
		<path class="st4" d="M87.76,163.14c16.51-18.37,9.35-45.5,9.35-45.5c-11.16,5.35-30.79,17.36-24.34,34.63
			c-1.49-10.37,5.19-20.98,17.27-24.15c10.4,29.26-20.1,30.81-18.79,56.26c1.8-11.32,13.45-12.1,18.18-12.81
			c18.75-2.8,31.52-18.64,33.69-35.11C113.47,163.77,87.76,163.14,87.76,163.14"/>
		<defs>
			<filter id="Adobe_OpacityMaskFilter_1_" filterUnits="userSpaceOnUse" x="23.05" y="53.49" width="88.33" height="63.93">
				<feColorMatrix  type="matrix" values="1 0 0 0 0  0 1 0 0 0  0 0 1 0 0  0 0 0 1 0"/>
			</filter>
		</defs>
		<mask maskUnits="userSpaceOnUse" x="23.05" y="53.49" width="88.33" height="63.93" id="SVGID_7_">
			<g class="st5">
				
					<linearGradient id="SVGID_8_" gradientUnits="userSpaceOnUse" x1="-583.2388" y1="760.4846" x2="-397.4853" y2="366.736" gradientTransform="matrix(1 0 0 1 485.3356 -325.0346)">
					<stop  offset="0" style="stop-color:#FFFFFF"/>
					<stop  offset="1" style="stop-color:#000000"/>
				</linearGradient>
				<rect x="23.05" y="53.49" class="st6" width="88.33" height="63.93"/>
			</g>
		</mask>
		<path class="st7" d="M51.39,66.71c3.17,33.08,29.16,32.66,44.35,38.28c-46.1,15.24-75.86-3.81-70.75-51.51
			c-8.7,39.33,12.53,65.8,49.68,63.83c12.88-0.69,25.2-5.07,36.71-11.44c-4.14-3.33-9.42-6.01-15.94-7.74
			C78.42,93.61,58.83,93,51.39,66.71"/>
		<defs>
			<filter id="Adobe_OpacityMaskFilter_2_" filterUnits="userSpaceOnUse" x="16.29" y="123.04" width="56.53" height="57.42">
				<feColorMatrix  type="matrix" values="1 0 0 0 0  0 1 0 0 0  0 0 1 0 0  0 0 0 1 0"/>
			</filter>
		</defs>
		<mask maskUnits="userSpaceOnUse" x="16.29" y="123.04" width="56.53" height="57.42" id="SVGID_9_">
			<g class="st8">
				
					<linearGradient id="SVGID_10_" gradientUnits="userSpaceOnUse" x1="-378.3389" y1="736.8726" x2="-449.3286" y2="396.8921" gradientTransform="matrix(1 0 0 1 482.5777 -299.2978)">
					<stop  offset="0" style="stop-color:#FFFFFF"/>
					<stop  offset="1" style="stop-color:#000000"/>
				</linearGradient>
				<rect x="16.29" y="123.04" class="st9" width="56.53" height="57.42"/>
			</g>
		</mask>
		<path class="st10" d="M40.22,157.7c-10.13,3.91-22.92-2.18-23.93-26.65v27.13c0,7.62,6.21,13.83,13.83,13.83h27.86
			c4.29,5.13,10.06,8.45,10.06,8.45v-0.01c-19.93-25.92-15.32-47.68,4.78-57.41C50.83,130.13,56.45,151.43,40.22,157.7"/>
		<defs>
			<filter id="Adobe_OpacityMaskFilter_3_" filterUnits="userSpaceOnUse" x="32.45" y="21.31" width="56.38" height="75.03">
				<feColorMatrix  type="matrix" values="1 0 0 0 0  0 1 0 0 0  0 0 1 0 0  0 0 0 1 0"/>
			</filter>
		</defs>
		<mask maskUnits="userSpaceOnUse" x="32.45" y="21.31" width="56.38" height="75.03" id="SVGID_11_">
			<g class="st11">
				
					<linearGradient id="SVGID_12_" gradientUnits="userSpaceOnUse" x1="-294.2562" y1="367.0942" x2="-514.4268" y2="408.6887" gradientTransform="matrix(1 0 0 1 489.172 -333.6406)">
					<stop  offset="0" style="stop-color:#FFFFFF"/>
					<stop  offset="1" style="stop-color:#000000"/>
				</linearGradient>
				<rect x="32.45" y="21.31" class="st12" width="56.38" height="75.03"/>
			</g>
		</mask>
		<path class="st13" d="M80.05,88.73c0,0-21.12-1.48-28.66-22.01c6.37,22.51,21.65,26.19,36.59,29.62c0,0,0.61-2.68,0.85-3.89
			c-0.31-47.51-44.98-33.84-56.38-71.14c0,0,0.09,20.63,24.47,35.51C81.3,71.69,80.05,88.73,80.05,88.73"/>
		<defs>
			<filter id="Adobe_OpacityMaskFilter_4_" filterUnits="userSpaceOnUse" x="51.36" y="66.71" width="44.38" height="42.04">
				<feColorMatrix  type="matrix" values="1 0 0 0 0  0 1 0 0 0  0 0 1 0 0  0 0 0 1 0"/>
			</filter>
		</defs>
		<mask maskUnits="userSpaceOnUse" x="51.36" y="66.71" width="44.38" height="42.04" id="SVGID_13_">
			<g class="st14">
				
					<linearGradient id="SVGID_14_" gradientUnits="userSpaceOnUse" x1="-296.2542" y1="392.2963" x2="-516.4246" y2="433.8908" gradientTransform="matrix(1 0 0 1 496.8938 -328.572)">
					<stop  offset="0" style="stop-color:#FFFFFF"/>
					<stop  offset="1" style="stop-color:#000000"/>
				</linearGradient>
				<rect x="51.36" y="66.71" class="st15" width="44.38" height="42.04"/>
			</g>
		</mask>
		<path class="st16" d="M95.74,104.99c-15.19-5.62-41.18-5.2-44.35-38.28c0,0-2.14,33.38,29.94,42.04
			C85.92,107.9,90.74,106.65,95.74,104.99"/>
		<defs>
			<filter id="Adobe_OpacityMaskFilter_5_" filterUnits="userSpaceOnUse" x="70.33" y="128.12" width="21.88" height="56.26">
				<feColorMatrix  type="matrix" values="1 0 0 0 0  0 1 0 0 0  0 0 1 0 0  0 0 0 1 0"/>
			</filter>
		</defs>
		<mask maskUnits="userSpaceOnUse" x="70.33" y="128.12" width="21.88" height="56.26" id="SVGID_15_">
			<g class="st17">
				
					<linearGradient id="SVGID_16_" gradientUnits="userSpaceOnUse" x1="-353.8926" y1="465.0646" x2="-483.8934" y2="444.2675" gradientTransform="matrix(1 0 0 1 504.6372 -297.6979)">
					<stop  offset="0" style="stop-color:#FFFFFF"/>
					<stop  offset="1" style="stop-color:#000000"/>
				</linearGradient>
				<rect x="70.33" y="128.12" class="st18" width="21.88" height="56.26"/>
			</g>
		</mask>
		<path class="st19" d="M85.65,135.93c5.41,16.71-20.44,26.6-14.41,48.45c-1.31-25.46,29.19-27,18.79-56.26
			c-12.07,3.17-18.76,13.78-17.27,24.15C72.77,152.27,73.73,140.77,85.65,135.93"/>
		<defs>
			<filter id="Adobe_OpacityMaskFilter_6_" filterUnits="userSpaceOnUse" x="71.73" y="57.34" width="49.77" height="35.11">
				<feColorMatrix  type="matrix" values="1 0 0 0 0  0 1 0 0 0  0 0 1 0 0  0 0 0 1 0"/>
			</filter>
		</defs>
		<mask maskUnits="userSpaceOnUse" x="71.73" y="57.34" width="49.77" height="35.11" id="SVGID_17_">
			<g class="st20">
				
					<linearGradient id="SVGID_18_" gradientUnits="userSpaceOnUse" x1="-438.0239" y1="554.8632" x2="-398.316" y2="359.5566" gradientTransform="matrix(1 0 0 1 505.2076 -335.2277)">
					<stop  offset="0" style="stop-color:#FFFFFF"/>
					<stop  offset="1" style="stop-color:#000000"/>
				</linearGradient>
				<rect x="71.73" y="57.34" class="st21" width="49.77" height="35.11"/>
			</g>
		</mask>
		<path class="st22" d="M71.73,57.34c9.55,6.63,16.98,15.83,17.1,35.11c15.56-2.12,28.33-13.38,32.67-28.15
			c-10.51,19.64-29.48,21.96-29.48,21.96C90.48,66.83,71.73,57.34,71.73,57.34"/>
		<defs>
			<filter id="Adobe_OpacityMaskFilter_7_" filterUnits="userSpaceOnUse" x="30.12" y="13.62" width="92.96" height="47.08">
				<feColorMatrix  type="matrix" values="1 0 0 0 0  0 1 0 0 0  0 0 1 0 0  0 0 0 1 0"/>
			</filter>
		</defs>
		<mask maskUnits="userSpaceOnUse" x="30.12" y="13.62" width="92.96" height="47.08" id="SVGID_19_">
			<g class="st23">
				
					<linearGradient id="SVGID_20_" gradientUnits="userSpaceOnUse" x1="-327.031" y1="273.3112" x2="-433.1722" y2="413.8935" gradientTransform="matrix(1 0 0 1 488.2243 -348.1897)">
					<stop  offset="0" style="stop-color:#FFFFFF"/>
					<stop  offset="1" style="stop-color:#000000"/>
				</linearGradient>
				<rect x="30.12" y="13.62" class="st24" width="92.96" height="47.08"/>
			</g>
		</mask>
		<path class="st25" d="M30.12,13.62c0,0,70.29,8.02,92.25,47.08c0.47-2.42,0.71-4.93,0.71-7.48c0-21.78-17.82-39.6-39.6-39.6H30.12
			z"/>
	</g>
	<text transform="matrix(0.933 0 0 1 146.4122 94.1971)"><tspan x="0" y="0" class="st26 st27 st28">Best-</tspan><tspan x="103.23" y="0" class="st26 st29 st28">Remedies</tspan><tspan x="295.49" y="0" class="st26 st27 st28">.com</tspan></text>
	<text transform="matrix(1.0407 0 0 1 146.4122 123.0154)" class="st30 st31 st32">Freely we have received, freely we give</text>
</g>
</svg>
