<svg xmlns="http://www.w3.org/2000/svg" width="28" height="28" viewBox="0 0 28 28">
  <path id="Path_2610" data-name="Path 2610" d="M9281.771,919.964l-.123-.673H9268v6.563h6.642a7.4,7.4,0,0,1-2.837,3.042h0a7.438,7.438,0,0,1-10.2-10.2h0a7.435,7.435,0,0,1,11.649-1.459l.58.58,4.64-4.64-.579-.58a14,14,0,0,0-19.8,0,14.4,14.4,0,0,0-1.212,1.38h0a14.006,14.006,0,0,0,0,17.038,14.411,14.411,0,0,0,1.212,1.381,14,14,0,0,0,18.419,1.211h0a14.321,14.321,0,0,0,1.38-1.211,13.909,13.909,0,0,0,4.1-9.9A14.187,14.187,0,0,0,9281.771,919.964Z" transform="translate(-9254 -908.5)" fill="#fff"/>
</svg>
