<svg xmlns="http://www.w3.org/2000/svg" width="28.002" height="22.837" viewBox="0 0 28.002 22.837">
  <g id="Group_355" data-name="Group 355" transform="translate(-5604.998 -1923.094)">
    <g id="Group_354" data-name="Group 354">
      <g id="Group_352" data-name="Group 352">
        <path id="Path_4180" data-name="Path 4180" d="M5631,1928.529v-5.435h-12.341v5.435l-1.942,3.36c-.633.039-1.242.136-1.8.225l-.468.073V1930.7a2.437,2.437,0,0,1,2.433-2.433v-1.64a4.073,4.073,0,0,0-3.425,1.872,3.778,3.778,0,0,0-.406-.48,5.183,5.183,0,0,0-3.186-1.348,8.185,8.185,0,0,0-1.772.006l-.62.083-.084.62a8.25,8.25,0,0,0-.005,1.772,5.443,5.443,0,0,0,1.088,2.9,4.153,4.153,0,0,0-2.632,2.031,9.48,9.48,0,0,0-.382,6.905,6.85,6.85,0,0,0,6.587,4.942H5633V1932Zm-7.134-.6v-3.193h1.926v3.193Zm3.567-3.193h1.926v3.193h-1.926Zm-7.134,0h1.926v3.193h-1.926Zm-10.567,3.575a3.664,3.664,0,0,1,2.161.872,4.234,4.234,0,0,1,.912,2.909h0a3.288,3.288,0,0,1-3.819-3.82,6.916,6.916,0,0,1,.75.039Zm2.315,15.981a5.233,5.233,0,0,1-5.011-3.756,7.937,7.937,0,0,1,.229-5.635c.942-1.644,2.665-1.511,4.819-1.166a6.922,6.922,0,0,0,3.094,0c.465-.075.97-.155,1.475-.2v10.753Zm19.317,0h-13.07v-11.852l1.658-2.87h9.754l1.658,2.87v11.852Z" fill="#ef5a24"/>
      </g>
      <g id="Group_353" data-name="Group 353">
        <path id="Path_4181" data-name="Path 4181" d="M5624.139,1933.527l-2.718,2.718a2.891,2.891,0,0,0,4.088,4.088l2.718-2.718a2.891,2.891,0,1,0-4.088-4.088Zm-1.558,5.646a1.253,1.253,0,0,1,0-1.768l.779-.779,1.768,1.768-.779.779A1.251,1.251,0,0,1,5622.581,1939.173Zm4.486-2.718-.779.779-1.768-1.768.779-.779a1.25,1.25,0,0,1,1.768,1.768Z" fill="#ef5a24"/>
      </g>
    </g>
  </g>
</svg>
