<svg xmlns="http://www.w3.org/2000/svg" width="26" height="19.804" viewBox="0 0 26 19.804">
  <g id="Group_218" data-name="Group 218" transform="translate(-9532 -912.598)">
    <path id="Path_2609" data-name="Path 2609" d="M9555.715,912.6h-21.43a2.289,2.289,0,0,0-2.285,2.285v15.234a2.288,2.288,0,0,0,2.285,2.285h21.43a2.289,2.289,0,0,0,2.285-2.285V914.883A2.288,2.288,0,0,0,9555.715,912.6Zm-.315,1.523-10.352,10.351-10.439-10.351ZM9533.523,929.8V915.191l7.337,7.274Zm1.077,1.077,7.342-7.342,2.572,2.551a.761.761,0,0,0,1.074,0l2.509-2.508,7.3,7.3Zm21.876-1.077-7.3-7.3,7.3-7.3Z" fill="#fff"/>
  </g>
</svg>
