<svg version="1.1" id="Layer_1" xmlns="http://www.w3.org/2000/svg" xmlns:xlink="http://www.w3.org/1999/xlink" x="0px" y="0px"
	 viewBox="0 0 30 30" style="enable-background:new 0 0 30 30;" xml:space="preserve">
<style type="text/css">
	.st0{fill:#EF5A24;}
</style>
<g>
	<g>
		<g>
			<path class="st0" d="M27,9V3.6H14.7V9l-1.9,3.4c-0.6,0-1.2,0.1-1.8,0.2c-0.2,0-0.3,0.1-0.5,0.1v-1.5c0-1.3,1.1-2.4,2.4-2.4V7.1
				c-1.4,0-2.7,0.7-3.4,1.9C9.3,8.8,9.2,8.7,9,8.5C8.3,7.8,7.2,7.3,5.9,7.2c-1-0.1-1.7,0-1.8,0L3.5,7.3L3.4,7.9c0,0-0.1,0.8,0,1.8
				c0.1,1.2,0.5,2.2,1.1,2.9c-1.1,0.3-2,1-2.6,2c-1,1.7-1.1,4.4-0.4,6.9c0.4,1.4,1.3,2.7,2.5,3.6c1.2,0.9,2.6,1.4,4.1,1.4h21V12.5
				L27,9z M19.9,8.4V5.2h1.9v3.2H19.9z M23.4,5.2h1.9v3.2h-1.9V5.2z M16.3,5.2h1.9v3.2h-1.9V5.2z M5.7,8.8c0.7,0.1,1.6,0.3,2.2,0.9
				c0.8,0.8,0.9,2.1,0.9,2.9c0,0,0,0,0,0c-0.8,0-2.1-0.1-2.9-0.9C5.1,10.9,5,9.6,5,8.8C5.2,8.8,5.5,8.8,5.7,8.8L5.7,8.8z M8,24.8
				c-2.3,0-4.4-1.5-5-3.8c-0.6-2.1-0.5-4.3,0.2-5.6c0.9-1.6,2.7-1.5,4.8-1.2c0.6,0.1,1.1,0.2,1.5,0.2c0.5,0,1-0.1,1.5-0.2
				c0.5-0.1,1-0.2,1.5-0.2v10.8H8z M27.4,24.8H14.3V12.9l1.7-2.9h9.8l1.7,2.9L27.4,24.8L27.4,24.8z"/>
		</g>
		<g>
			<path class="st0" d="M20.1,14l-2.7,2.7c-1.1,1.1-1.1,3,0,4.1c0.6,0.6,1.3,0.8,2,0.8c0.7,0,1.5-0.3,2-0.8l2.7-2.7
				c1.1-1.1,1.1-3,0-4.1C23.1,12.9,21.3,12.9,20.1,14z M18.6,19.7c-0.5-0.5-0.5-1.3,0-1.8l0.8-0.8l1.8,1.8l-0.8,0.8
				C19.9,20.1,19.1,20.1,18.6,19.7z M23.1,16.9l-0.8,0.8L20.5,16l0.8-0.8c0.2-0.2,0.6-0.4,0.9-0.4c0.3,0,0.6,0.1,0.9,0.4
				C23.6,15.7,23.6,16.5,23.1,16.9L23.1,16.9z"/>
		</g>
	</g>
</g>
</svg>
