<?xml version="1.0" encoding="utf-8"?>
<!-- Generator: Adobe Illustrator 23.0.3, SVG Export Plug-In . SVG Version: 6.00 Build 0)  -->
<svg version="1.1" id="Layer_1" xmlns="http://www.w3.org/2000/svg" xmlns:xlink="http://www.w3.org/1999/xlink" x="0px" y="0px"
	 viewBox="0 0 500 500" style="enable-background:new 0 0 500 500;" xml:space="preserve">
<style type="text/css">
	.st0{fill:#FB4A59;}
	.st1{fill:#FFFFFF;}
	.st2{fill:#FFDFD0;}
</style>
<g>
	<g>
		<g>
			<path class="st0" d="M405.24,45.43c-38.04-38.04-99.72-38.04-137.76,0l-17.47,17.47l-17.47-17.47
				c-38.04-38.04-99.72-38.04-137.76,0c-38.04,38.04-38.04,99.72,0,137.76l17.47,17.47l116.12,116.12
				c11.95,11.95,31.33,11.95,43.28,0l116.12-116.12l17.47-17.47C443.28,145.15,443.28,83.47,405.24,45.43L405.24,45.43z"/>
		</g>
		<g>
			<path class="st1" d="M319.65,155.37h-49.6v-49.6c0-6.55-5.31-11.87-11.87-11.87h-16.35c-6.55,0-11.87,5.31-11.87,11.87v49.6
				h-49.6c-6.55,0-11.87,5.31-11.87,11.87v16.35c0,6.55,5.31,11.87,11.87,11.87h49.6v49.6c0,6.55,5.31,11.87,11.87,11.87h16.35
				c6.55,0,11.87-5.31,11.87-11.87v-49.61h49.6c6.55,0,11.87-5.31,11.87-11.87v-16.35C331.51,160.68,326.2,155.37,319.65,155.37z"/>
		</g>
		<g>
			<path class="st2" d="M477.19,191.13c0,0-12.76,117.56-13.92,128.11c-1.27,11.22-5.32,27-17.46,38.46
				c-15.22,14.37-42.11,34.98-56.79,46c-7.15,5.36-11.42,13.9-11.42,22.84v52.48c0,2.26-1.83,4.09-4.09,4.09h-67.72
				c-2.26,0-4.09-1.83-4.09-4.09v-64.79c0-0.25-0.02-0.51-0.07-0.76c-0.07-0.38-7.15-40.01,14.37-64.17
				c6.3-7.11,14.24-13.12,23.6-17.86l10.46-5.34c11.29-5.74,21.68-13.07,30.89-21.77l35.02-33.1c2.61-2.46,6.01-3.75,9.48-3.75
				c1.61,0,3.22,0.27,4.81,0.83c2.06,0.74,3.89,1.94,5.41,3.55c2.57,2.7,3.91,6.26,3.82,9.99c-0.11,3.73-1.68,7.2-4.38,9.77
				l-62.49,59c-1.63,1.54-1.74,4.16-0.16,5.77c1.43,1.48,4.27,1.59,5.77,0.18l62.49-59.03c4.29-4.05,6.75-9.54,6.93-15.44
				c0.16-5.92-1.97-11.55-6.03-15.85c-1.63-1.72-3.49-3.11-5.5-4.2l10.86-73.69c1.18-7.96,7.84-13.92,15.26-13.83
				c4.31,0.04,8.27,1.83,11.15,5.03C476.25,182.77,477.59,186.88,477.19,191.13z"/>
			<g>
				<g>
					<g>
						<path class="st2" d="M477.19,191.13c0,0-12.76,117.56-13.92,128.11c-1.27,11.22-5.32,27-17.46,38.46
							c-15.22,14.37-42.11,34.98-56.79,46c-7.15,5.36-11.42,13.9-11.42,22.84v52.48c0,2.26-1.83,4.09-4.09,4.09h-67.72
							c-2.26,0-4.09-1.83-4.09-4.09v-64.79c0-0.25-0.02-0.51-0.07-0.76c-0.07-0.38-7.15-40.01,14.37-64.17
							c6.3-7.11,14.24-13.12,23.6-17.86l10.46-5.34c11.29-5.74,21.68-13.07,30.89-21.77l35.02-33.1c2.61-2.46,6.01-3.75,9.48-3.75
							c1.61,0,3.22,0.27,4.81,0.83c2.06,0.74,3.89,1.94,5.41,3.55c2.57,2.7,3.91,6.26,3.82,9.99c-0.11,3.73-1.68,7.2-4.38,9.77
							l-62.49,59c-1.63,1.54-1.74,4.16-0.16,5.77c1.43,1.48,4.27,1.59,5.77,0.18l62.49-59.03c4.29-4.05,6.75-9.54,6.93-15.44
							c0.16-5.92-1.97-11.55-6.03-15.85c-1.63-1.72-3.49-3.11-5.5-4.2l10.86-73.69c1.18-7.96,7.84-13.92,15.26-13.83
							c4.31,0.04,8.27,1.83,11.15,5.03C476.25,182.77,477.59,186.88,477.19,191.13z"/>
						<path class="st2" d="M198.37,413.46c-0.04,0.25-0.07,0.51-0.07,0.76v64.79c0,2.26-1.83,4.09-4.09,4.09H126.5
							c-2.26,0-4.09-1.83-4.09-4.09v-52.48c0-8.94-4.25-17.48-11.4-22.84c-14.68-11.02-41.59-31.65-56.79-46
							c-12.16-11.49-16.2-27.27-17.48-38.46c-1.16-10.55-13.92-128.09-13.92-128.09c-0.4-4.27,0.94-8.4,3.82-11.6
							c2.86-3.2,6.82-4.98,11.13-5.03c7.44-0.07,14.08,5.88,15.26,13.83l10.88,73.69c-2.03,1.1-3.89,2.48-5.52,4.2
							c-4.05,4.29-6.19,9.92-6.03,15.82c0.18,5.92,2.64,11.42,6.93,15.47l62.49,59.03c1.9,1.59,4.4,1.27,5.79-0.18
							c1.54-1.63,1.48-4.22-0.18-5.77L64.9,291.59c-2.7-2.55-4.27-6.01-4.38-9.74c-0.09-3.73,1.25-7.29,3.82-9.99
							c1.52-1.61,3.35-2.82,5.41-3.55c1.59-0.56,3.2-0.83,4.81-0.83c3.49,0,6.88,1.3,9.48,3.75l35.02,33.08
							c9.21,8.69,19.6,16.03,30.89,21.79l10.46,5.34c9.36,4.74,17.3,10.75,23.6,17.86C205.46,373.39,198.44,413.08,198.37,413.46z"
							/>
						<path class="st2" d="M198.37,413.46c-0.04,0.25-0.07,0.51-0.07,0.76v64.79c0,2.26-1.83,4.09-4.09,4.09H126.5
							c-2.26,0-4.09-1.83-4.09-4.09v-52.48c0-8.94-4.25-17.48-11.4-22.84c-14.68-11.02-41.59-31.65-56.79-46
							c-12.16-11.49-16.2-27.27-17.48-38.46c-1.16-10.55-13.92-128.09-13.92-128.09c-0.4-4.27,0.94-8.4,3.82-11.6
							c2.86-3.2,6.82-4.98,11.13-5.03c7.44-0.07,14.08,5.88,15.26,13.83l10.88,73.69c-2.03,1.1-3.89,2.48-5.52,4.2
							c-4.05,4.29-6.19,9.92-6.03,15.82c0.18,5.92,2.64,11.42,6.93,15.47l62.49,59.03c1.9,1.59,4.4,1.27,5.79-0.18
							c1.54-1.63,1.48-4.22-0.18-5.77L64.9,291.59c-2.7-2.55-4.27-6.01-4.38-9.74c-0.09-3.73,1.25-7.29,3.82-9.99
							c1.52-1.61,3.35-2.82,5.41-3.55c1.59-0.56,3.2-0.83,4.81-0.83c3.49,0,6.88,1.3,9.48,3.75l35.02,33.08
							c9.21,8.69,19.6,16.03,30.89,21.79l10.46,5.34c9.36,4.74,17.3,10.75,23.6,17.86C205.46,373.39,198.44,413.08,198.37,413.46z"
							/>
					</g>
				</g>
			</g>
		</g>
	</g>
</g>
</svg>
